<?xml version="1.0" encoding="UTF-8"?>
<!DOCTYPE svg PUBLIC "-//W3C//DTD SVG 1.1//EN" "http://www.w3.org/Graphics/SVG/1.1/DTD/svg11.dtd">
<!-- Creator: CorelDRAW (Versão OEM) -->
<svg xmlns="http://www.w3.org/2000/svg" xml:space="preserve" width="80.333mm" height="96.5635mm" version="1.1" style="shape-rendering:geometricPrecision; text-rendering:geometricPrecision; image-rendering:optimizeQuality; fill-rule:evenodd; clip-rule:evenodd"
viewBox="0 0 7875.71 9466.92"
 xmlns:xlink="http://www.w3.org/1999/xlink"
 xmlns:xodm="http://www.corel.com/coreldraw/odm/2003">
 <defs>
  <style type="text/css">
   <![CDATA[
    .fil2 {fill:#FDFAF6}
    .fil0 {fill:#83C451;fill-rule:nonzero}
    .fil1 {fill:#282829;fill-rule:nonzero}
   ]]>
  </style>
 </defs>
 <g id="Camada_x0020_1">
  <metadata id="CorelCorpID_0Corel-Layer"/>
  <path class="fil0" d="M7761.08 4594.55c-143.39,-653.93 -434.05,-1302.93 -958.18,-1729.08 -662.69,-538.88 -1654.1,-632.14 -2425.8,-259.48 -1.55,0.74 -3.15,1.51 -4.72,2.31 -274.17,133.16 -594.86,133.16 -869,0 -1.63,-0.8 -3.14,-1.58 -4.72,-2.31 -771.82,-372.66 -1763.16,-279.4 -2425.8,259.48 -524.13,426.15 -814.79,1075.16 -958.24,1729.08 -178.59,814.19 -152.98,1675.55 108.5,2467.77 261.48,792.2 762.7,1511.57 1441.62,2009.32 327.92,240.48 720.55,395.29 1129.6,395.29 206.24,0 400.44,-55.61 568.22,-130.24 359.98,-160.18 771.9,-156.32 1132.48,2.4 166.79,73.47 365.07,127.84 586.32,127.84 409.12,0 801.59,-154.81 1129.65,-395.29 678.87,-497.74 1180.09,-1217.12 1441.62,-2009.32 261.48,-792.22 287,-1653.58 108.44,-2467.77zm-4409.71 -2409.43c16.82,36.82 -22.12,70.8 -56.5,49.15 -387.83,-245.03 -961.2,-162.87 -1201.94,-177.45 -266.03,-16.15 -548.08,-82.55 -744.41,-281 -232.45,-234.88 -290.4,-592.8 -358.8,-920.32 -51.04,-244.65 -130.75,-508.07 -286.63,-690.09 -37,-43.21 -18.2,-107.62 34.83,-118.84 649.06,-137.13 1365.67,32.03 1915.67,462.55 523.83,409.99 897.37,1091.65 1016.81,1843.12 5.77,36.23 -43.66,48.4 -59.7,14.74 -427.32,-898.54 -1050.16,-1491.06 -1841.54,-1778.63 -14.24,-5.17 -21.46,15 -7.77,21.61 785.68,378.89 1294.44,927.97 1589.99,1575.15zm-2329.37 2283.1c139.53,-527.99 433.02,-1105.76 936.3,-1364.41 42.49,-22.24 24,-85.87 -23.89,-81.9 -106.84,11.15 -211.14,46.86 -306.86,95.38 -601.74,318.63 -901.94,1129.28 -817.16,1780.92 7,51.77 16.46,103.13 29.83,153.5 4.57,17.03 19.25,30.26 37.8,32.01 23.79,2.28 44.91,-15.21 47.2,-39.04 16.61,-194.39 47.13,-388.32 96.78,-576.46z"/>
  <path class="fil1" d="M5592.16 834.82c-242.85,155.56 -466.13,342.98 -663.49,553.42 -152.53,163.79 -293.89,346.32 -414.53,535.83 -152.59,239 -276.68,494.7 -369.58,762.41 -103.84,22.03 -210.39,27.26 -315.49,15.72 128.5,-734.5 469.87,-1432.85 963.49,-1991.9 74.43,-85.55 169.33,-182.39 251.25,-260.97 53.8,-50.26 108.67,-99.35 164.84,-146.99 126.9,-107.58 319.35,-78.32 407.78,62.49l59.86 95.33c79.61,126.81 41.92,293.91 -84.15,374.66z"/>
  <path class="fil2" d="M1035.42 4379.42c190.66,-562.69 552.16,-1167.96 1117.64,-1411.23 47.77,-20.95 32.42,-91.41 -19.85,-90.67 -116.78,4.16 -232.63,35.18 -340.13,80.69 -676.78,301.09 -1062.89,1158.57 -1019.34,1872.13 3.75,56.71 10.2,113.14 20.98,168.81 3.67,18.82 18.62,34.26 38.62,37.53 25.68,4.25 49.88,-13.17 54.11,-38.85 32.53,-209.73 80.07,-417.95 147.99,-618.41z"/>
 </g>
</svg>
