<?xml version="1.0" encoding="UTF-8"?>
<!DOCTYPE svg PUBLIC "-//W3C//DTD SVG 1.1//EN" "http://www.w3.org/Graphics/SVG/1.1/DTD/svg11.dtd">
<!-- Creator: CorelDRAW (Versão OEM) -->
<svg xmlns="http://www.w3.org/2000/svg" xml:space="preserve" width="158.734mm" height="47.1439mm" version="1.1" style="shape-rendering:geometricPrecision; text-rendering:geometricPrecision; image-rendering:optimizeQuality; fill-rule:evenodd; clip-rule:evenodd"
viewBox="0 0 17947.42 5330.38"
 xmlns:xlink="http://www.w3.org/1999/xlink"
 xmlns:xodm="http://www.corel.com/coreldraw/odm/2003">
 <defs>
  <style type="text/css">
   <![CDATA[
    .fil0 {fill:#FDFAF6;fill-rule:nonzero}
   ]]>
  </style>
 </defs>
 <g id="Camada_x0020_1">
  <metadata id="CorelCorpID_0Corel-Layer"/>
  <path class="fil0" d="M2681.19 3278.19c0,127.92 19.55,242.53 58.64,343.81 39.09,101.27 124.37,160.79 255.86,178.57 42.64,3.55 63.96,26.65 63.96,69.3l0 175.9c0,49.75 -26.65,74.62 -79.95,74.62 -174.13,0 -318.94,9.77 -434.43,29.32 -115.49,19.55 -214.98,44.42 -298.49,74.62 -83.51,30.21 -166.13,63.08 -247.86,98.62 -14.21,7.1 -26.65,10.66 -37.31,10.66l-16 0c-7.1,0 -10.65,-7.11 -10.65,-21.32 0,-14.21 3.55,-48.87 10.65,-103.94 7.11,-55.09 15.11,-117.27 23.99,-186.56 8.89,-69.3 16.88,-128.83 23.98,-178.58 -17.76,46.2 -55.97,108.39 -114.6,186.57 -58.62,78.17 -143.91,148.35 -255.86,210.55 -111.94,62.19 -258.51,93.28 -439.75,93.28 -120.82,0 -249.64,-24.87 -386.46,-74.62 -136.81,-49.76 -265.63,-129.71 -386.45,-239.87 -120.82,-110.16 -219.44,-254.98 -295.84,-434.42 -76.4,-179.46 -114.6,-398.9 -114.6,-658.31 0,-330.48 59.53,-597.89 178.57,-802.23 119.05,-204.33 273.63,-354.46 463.75,-450.41 190.11,-95.95 391.77,-143.92 604.99,-143.92 174.12,0 334.03,26.65 479.73,79.95 145.7,53.31 273.63,129.71 383.79,229.21 92.4,-39.09 171.46,-75.51 237.2,-109.27 65.74,-33.76 121.72,-68.41 167.9,-103.94 17.77,-14.21 36.43,-28.44 55.97,-42.65 19.55,-14.21 41.76,-28.42 66.63,-42.64 10.66,-7.11 19.55,-10.66 26.66,-10.66l5.33 0c7.11,0 10.66,3.55 10.66,10.66l0 1737.7zm-746.25 -836.87c-10.66,-71.07 -36.43,-150.14 -77.29,-237.2 -40.87,-87.06 -102.17,-161.68 -183.9,-223.88 -81.74,-62.19 -191.9,-93.28 -330.48,-93.28 -170.57,0 -303.83,41.76 -399.78,125.27 -95.95,83.51 -162.58,191 -199.89,322.49 -37.31,131.48 -55.97,271.85 -55.97,421.1 0,341.14 68.41,611.21 205.22,810.21 136.81,199.01 313.61,298.51 530.37,298.51 127.93,0 228.33,-27.54 301.17,-82.62 72.85,-55.09 125.25,-111.05 157.24,-167.91 31.99,-56.85 49.75,-90.61 53.31,-101.27l0 -1071.4z"/>
  <path class="fil0" d="M4216.34 2014.89c21.31,-49.75 60.41,-112.83 117.26,-189.23 56.86,-76.41 142.15,-144.82 255.86,-205.23 113.72,-60.41 261.19,-90.61 442.43,-90.61 120.82,0 248.75,24.87 383.78,74.62 135.05,49.75 262.97,129.71 383.79,239.87 120.82,110.16 219.44,254.08 295.84,431.75 76.4,177.68 114.6,396.23 114.6,655.64 0,326.93 -58.64,594.34 -175.91,802.23 -117.26,207.88 -270.07,359.8 -458.4,455.75 -188.35,95.95 -390.9,143.92 -607.66,143.92 -270.08,0 -501.06,-85.29 -692.96,-255.86l0 426.43c0,142.14 31.99,262.08 95.95,359.8 63.97,97.72 161.7,146.58 293.18,146.58 53.3,0 79.95,26.66 79.95,79.96l0 159.91c0,53.31 -26.65,79.96 -79.95,79.96l-1524.49 0c-53.3,0 -79.96,-26.65 -79.96,-79.96l0 -159.91c0,-53.3 28.44,-79.96 85.29,-79.96 131.48,0 228.33,-48.86 290.51,-146.58 62.19,-97.72 93.28,-217.66 93.28,-359.8l0 -1833.65c0,-95.95 -5.33,-188.35 -15.99,-277.18 -10.66,-88.84 -38.21,-164.35 -82.63,-226.54 -44.41,-62.19 -116.38,-98.62 -215.88,-109.28 -24.87,-3.55 -40.86,-11.54 -47.97,-23.98 -7.1,-12.44 -10.66,-27.54 -10.66,-45.31l0 -181.23c0,-46.2 24.87,-69.3 74.62,-69.3 177.68,0 323.38,-7.99 437.09,-23.99 113.72,-15.99 212.33,-39.97 295.84,-71.96 83.51,-31.99 166.13,-67.52 247.86,-106.61 10.66,-7.1 20.43,-10.66 29.32,-10.66 8.89,0 15.11,0 18.66,0l5.34 0c7.1,0 10.65,5.34 10.65,16 0,3.55 -0.88,12.44 -2.66,26.65 -1.78,14.21 -6.22,54.19 -13.33,119.93 -7.1,65.75 -21.32,175.02 -42.64,327.82zm58.62 1300.61c14.22,110.16 45.32,216.77 93.29,319.82 47.97,103.06 114.6,186.57 199.89,250.53 85.29,63.96 186.56,95.95 303.83,95.95 170.57,0 303.83,-42.65 399.78,-127.93 95.94,-85.29 162.57,-195.45 199.89,-330.48 37.31,-135.04 55.97,-275.41 55.97,-421.1 0,-341.14 -68.41,-611.21 -205.23,-810.21 -136.81,-199.01 -315.38,-298.51 -535.7,-298.51 -142.15,0 -256.75,39.98 -343.81,119.93 -87.06,79.96 -143.03,157.25 -167.91,231.88l0 970.13z"/>
  <path class="fil0" d="M7473.22 2014.89c21.31,-49.75 60.41,-112.83 117.26,-189.23 56.86,-76.41 142.15,-144.82 255.86,-205.23 113.72,-60.41 261.19,-90.61 442.43,-90.61 120.82,0 248.75,24.87 383.78,74.62 135.05,49.75 262.97,129.71 383.79,239.87 120.82,110.16 219.44,254.08 295.84,431.75 76.4,177.68 114.6,396.23 114.6,655.64 0,326.93 -58.64,594.34 -175.91,802.23 -117.26,207.88 -270.07,359.8 -458.4,455.75 -188.35,95.95 -390.9,143.92 -607.66,143.92 -270.08,0 -501.06,-85.29 -692.96,-255.86l0 426.43c0,142.14 31.99,262.08 95.95,359.8 63.97,97.72 161.7,146.58 293.18,146.58 53.3,0 79.95,26.66 79.95,79.96l0 159.91c0,53.31 -26.65,79.96 -79.95,79.96l-1524.49 0c-53.3,0 -79.96,-26.65 -79.96,-79.96l0 -159.91c0,-53.3 28.44,-79.96 85.29,-79.96 131.48,0 228.33,-48.86 290.51,-146.58 62.19,-97.72 93.28,-217.66 93.28,-359.8l0 -1833.65c0,-95.95 -5.33,-188.35 -15.99,-277.18 -10.66,-88.84 -38.21,-164.35 -82.63,-226.54 -44.41,-62.19 -116.38,-98.62 -215.88,-109.28 -24.87,-3.55 -40.86,-11.54 -47.97,-23.98 -7.1,-12.44 -10.66,-27.54 -10.66,-45.31l0 -181.23c0,-46.2 24.87,-69.3 74.62,-69.3 177.68,0 323.38,-7.99 437.09,-23.99 113.72,-15.99 212.33,-39.97 295.84,-71.96 83.51,-31.99 166.13,-67.52 247.86,-106.61 10.66,-7.1 20.43,-10.66 29.32,-10.66 8.89,0 15.11,0 18.66,0l5.34 0c7.1,0 10.65,5.34 10.65,16 0,3.55 -0.88,12.44 -2.66,26.65 -1.78,14.21 -6.22,54.19 -13.33,119.93 -7.1,65.75 -21.32,175.02 -42.64,327.82zm58.62 1300.61c14.22,110.16 45.32,216.77 93.29,319.82 47.97,103.06 114.6,186.57 199.89,250.53 85.29,63.96 186.56,95.95 303.83,95.95 170.57,0 303.83,-42.65 399.78,-127.93 95.94,-85.29 162.57,-195.45 199.89,-330.48 37.31,-135.04 55.97,-275.41 55.97,-421.1 0,-341.14 -68.41,-611.21 -205.23,-810.21 -136.81,-199.01 -315.38,-298.51 -535.7,-298.51 -142.15,0 -256.75,39.98 -343.81,119.93 -87.06,79.96 -143.03,157.25 -167.91,231.88l0 970.13z"/>
  <path class="fil0" d="M10804.7 2158.81c95.95,-206.11 229.21,-362.47 399.78,-469.08 170.57,-106.61 350.03,-159.91 538.38,-159.91 167.01,0 309.16,46.2 426.43,138.59 117.26,92.4 175.9,229.21 175.9,410.44 0,78.17 -7.1,147.47 -21.31,207.88 -14.22,60.41 -53.31,104.84 -117.27,133.26l-501.05 202.56c-21.32,7.1 -37.31,10.66 -47.97,10.66 -31.99,0 -47.97,-16 -47.97,-47.97 0,-10.66 3.55,-26.65 10.66,-47.97 21.31,-49.75 34.64,-97.72 39.97,-143.92 5.34,-46.2 8.01,-87.06 8.01,-122.6 0,-95.95 -23.99,-166.13 -71.97,-210.55 -47.97,-44.42 -107.49,-66.63 -178.57,-66.63 -81.74,0 -158.13,24.87 -229.21,74.62 -71.07,49.75 -133.26,110.16 -186.56,181.23 -53.31,71.07 -92.4,140.37 -117.27,207.88l0 980.79c0,142.15 31.99,262.08 95.95,359.8 63.96,97.72 161.68,146.59 293.17,146.59l10.66 0c53.3,0 79.96,26.65 79.96,79.95l0 159.91c0,53.31 -26.66,79.96 -79.96,79.96l-1551.14 0c-53.3,0 -79.95,-26.65 -79.95,-79.96l0 -159.91c0,-53.3 26.65,-79.95 79.95,-79.95l10.66 0c131.48,0 229.21,-48.87 293.17,-146.59 63.96,-97.72 95.95,-217.65 95.95,-359.8l0 -671.62c0,-95.95 -6.22,-188.35 -18.66,-277.18 -12.44,-88.85 -39.98,-164.35 -82.62,-226.54 -42.65,-62.19 -113.72,-98.62 -213.22,-109.28 -42.64,-3.55 -63.96,-26.65 -63.96,-69.3l0 -181.22c0,-35.54 26.65,-58.64 79.96,-69.3 252.3,-39.09 473.51,-101.28 663.63,-186.57 190.11,-85.29 318.93,-152.8 386.45,-202.55 10.66,-7.11 19.55,-10.66 26.65,-10.66l10.66 0c7.11,0 10.66,3.55 10.66,10.66 0,3.55 -4.44,30.2 -13.33,79.95 -8.88,49.75 -19.54,112.83 -31.98,189.23 -12.44,76.41 -26.65,154.58 -42.65,234.54 -15.99,79.95 -29.32,150.14 -39.98,210.55z"/>
  <path class="fil0" d="M13816.38 1529.82c202.56,0 390.01,39.98 562.36,119.93 172.35,79.96 320.71,188.35 445.09,325.16 124.38,136.81 221.21,289.62 290.51,458.42 69.29,168.8 103.94,343.81 103.94,525.03 0,262.97 -62.19,498.4 -186.57,706.28 -124.37,207.88 -287.83,371.35 -490.39,490.4 -202.56,119.04 -422.88,178.57 -660.96,178.57 -202.56,0 -389.12,-39.1 -559.69,-117.27 -170.58,-78.17 -318.94,-183.9 -445.1,-317.16 -126.15,-133.26 -223.87,-286.06 -293.17,-458.4 -69.29,-172.36 -103.94,-352.7 -103.94,-541.03 0,-259.42 60.41,-492.18 181.23,-698.29 120.82,-206.11 282.51,-369.57 485.07,-490.39 202.56,-120.82 426.43,-181.23 671.62,-181.23zm229.21 2372.02c67.52,0 142.15,-17.76 223.88,-53.3 81.72,-35.54 153.69,-97.72 215.88,-186.57 62.19,-88.84 93.28,-211.43 93.28,-367.79 0,-124.37 -23.98,-262.08 -71.96,-413.1 -47.97,-151.03 -113.72,-296.73 -197.23,-437.09 -83.5,-140.37 -181.22,-255.86 -293.17,-346.48 -111.94,-90.61 -233.64,-135.93 -365.12,-135.93 -145.7,0 -271.86,54.19 -378.46,162.58 -106.61,108.39 -159.92,256.75 -159.92,445.09 0,120.82 23.99,257.64 71.97,410.44 47.97,152.81 113.71,299.39 197.22,439.76 83.51,140.36 182.13,255.86 295.84,346.47 113.71,90.62 236.31,135.93 367.79,135.93z"/>
  <path class="fil0" d="M15905.89 1488.63c0,-309.1 100.11,-680.46 253.19,-947.6 90.62,-158.13 213.22,-287.84 367.79,-389.12 154.58,-101.28 349.15,-151.92 583.68,-151.92 284.28,0 494.83,54.19 631.66,162.58 136.81,108.39 205.22,242.53 205.22,402.44 0,92.4 -17.76,181.23 -53.3,266.52 -10.66,24.87 -25.77,46.2 -45.32,63.97 -19.54,17.76 -48.86,30.2 -87.94,37.31 -63.97,14.21 -139.48,31.09 -226.55,50.63 -87.06,19.55 -165.24,36.43 -234.53,50.64 -69.3,14.21 -109.27,21.32 -119.93,21.32 -21.32,0 -31.99,-16 -31.99,-47.97 0,-17.77 5.34,-37.31 15.99,-58.64 67.52,-135.04 101.28,-252.31 101.28,-351.81 0,-99.5 -25.77,-175.02 -77.29,-226.54 -51.52,-51.52 -109.28,-77.29 -173.24,-77.29 -85.29,0 -159.91,39.09 -223.87,117.27 -67.52,78.17 -112.86,186.59 -135.93,325.14 -23.07,138.56 -34.64,309.24 -34.64,511.73l0 283.97 714.26 0c53.31,0 79.96,26.72 79.96,79.95l0 229.21c0,53.23 -26.72,79.96 -79.96,79.96l-714.26 0 0 1517.7c0,142.08 32.9,262.11 98.61,359.8 65.71,97.69 164.35,146.59 295.84,146.59 53.31,0 79.96,26.65 79.96,79.95l0 159.91c0,53.31 -26.65,79.96 -79.96,79.96l-1503.17 0c-53.3,0 -79.95,-26.65 -79.95,-79.96l0 -159.91c0,-53.3 26.65,-79.95 79.95,-79.95 131.48,0 229.24,-48.9 293.18,-146.59 63.93,-97.69 95.94,-217.65 95.94,-359.8 0,-399.01 28.31,-873.23 -15.99,-1264.51 -10.66,-94.17 -43.56,-171.5 -98.62,-231.88 -55.04,-60.38 -146.58,-90.61 -274.51,-90.61 -53.3,0 -79.95,-26.65 -79.95,-79.96l0 -159.91c0,-53.3 26.65,-79.95 79.95,-79.95l394.45 0 0 -42.65z"/>
 </g>
</svg>
